<mxfile host="app.diagrams.net" modified="2021-10-05T15:07:40.475Z" agent="5.0 (Windows NT 10.0; Win64; x64) AppleWebKit/537.36 (KHTML, like Gecko) Chrome/94.0.4606.61 Safari/537.36" etag="rzV-zxdTa31qX-_Acnkv" version="15.4.1" type="github">
  <diagram id="g_fvO77-LL05nfb9VVoU" name="Page-1">
    <mxGraphModel dx="1550" dy="835" grid="1" gridSize="10" guides="1" tooltips="1" connect="1" arrows="1" fold="1" page="1" pageScale="1" pageWidth="827" pageHeight="1169" background="#114B5F" math="0" shadow="0">
      <root>
        <mxCell id="0" />
        <mxCell id="1" parent="0" />
        <mxCell id="3t-wEoBImFfyJGvglYrX-12" value="" style="shape=table;startSize=0;container=1;collapsible=0;childLayout=tableLayout;fillColor=#F45B69;strokeColor=#028090;fontColor=#E4FDE1;" vertex="1" parent="1">
          <mxGeometry x="130" y="240" width="100" height="200" as="geometry" />
        </mxCell>
        <mxCell id="3t-wEoBImFfyJGvglYrX-13" value="" style="shape=partialRectangle;collapsible=0;dropTarget=0;pointerEvents=0;fillColor=none;top=0;left=0;bottom=0;right=0;points=[[0,0.5],[1,0.5]];portConstraint=eastwest;strokeColor=#028090;fontColor=#E4FDE1;" vertex="1" parent="3t-wEoBImFfyJGvglYrX-12">
          <mxGeometry width="100" height="40" as="geometry" />
        </mxCell>
        <mxCell id="3t-wEoBImFfyJGvglYrX-14" value="block" style="shape=partialRectangle;html=1;whiteSpace=wrap;connectable=0;overflow=hidden;fillColor=none;top=0;left=0;bottom=0;right=0;pointerEvents=1;strokeColor=#028090;fontColor=#E4FDE1;" vertex="1" parent="3t-wEoBImFfyJGvglYrX-13">
          <mxGeometry width="100" height="40" as="geometry">
            <mxRectangle width="100" height="40" as="alternateBounds" />
          </mxGeometry>
        </mxCell>
        <mxCell id="3t-wEoBImFfyJGvglYrX-15" value="" style="shape=partialRectangle;collapsible=0;dropTarget=0;pointerEvents=0;fillColor=none;top=0;left=0;bottom=0;right=0;points=[[0,0.5],[1,0.5]];portConstraint=eastwest;strokeColor=#028090;fontColor=#E4FDE1;" vertex="1" parent="3t-wEoBImFfyJGvglYrX-12">
          <mxGeometry y="40" width="100" height="40" as="geometry" />
        </mxCell>
        <mxCell id="3t-wEoBImFfyJGvglYrX-16" value="block" style="shape=partialRectangle;html=1;whiteSpace=wrap;connectable=0;overflow=hidden;fillColor=none;top=0;left=0;bottom=0;right=0;pointerEvents=1;strokeColor=#028090;fontColor=#E4FDE1;" vertex="1" parent="3t-wEoBImFfyJGvglYrX-15">
          <mxGeometry width="100" height="40" as="geometry">
            <mxRectangle width="100" height="40" as="alternateBounds" />
          </mxGeometry>
        </mxCell>
        <mxCell id="3t-wEoBImFfyJGvglYrX-17" value="" style="shape=partialRectangle;collapsible=0;dropTarget=0;pointerEvents=0;fillColor=none;top=0;left=0;bottom=0;right=0;points=[[0,0.5],[1,0.5]];portConstraint=eastwest;strokeColor=#028090;fontColor=#E4FDE1;" vertex="1" parent="3t-wEoBImFfyJGvglYrX-12">
          <mxGeometry y="80" width="100" height="40" as="geometry" />
        </mxCell>
        <mxCell id="3t-wEoBImFfyJGvglYrX-18" value="block" style="shape=partialRectangle;html=1;whiteSpace=wrap;connectable=0;overflow=hidden;fillColor=none;top=0;left=0;bottom=0;right=0;pointerEvents=1;strokeColor=#028090;fontColor=#E4FDE1;" vertex="1" parent="3t-wEoBImFfyJGvglYrX-17">
          <mxGeometry width="100" height="40" as="geometry">
            <mxRectangle width="100" height="40" as="alternateBounds" />
          </mxGeometry>
        </mxCell>
        <mxCell id="3t-wEoBImFfyJGvglYrX-19" value="" style="shape=partialRectangle;collapsible=0;dropTarget=0;pointerEvents=0;fillColor=none;top=0;left=0;bottom=0;right=0;points=[[0,0.5],[1,0.5]];portConstraint=eastwest;strokeColor=#028090;fontColor=#E4FDE1;" vertex="1" parent="3t-wEoBImFfyJGvglYrX-12">
          <mxGeometry y="120" width="100" height="40" as="geometry" />
        </mxCell>
        <mxCell id="3t-wEoBImFfyJGvglYrX-20" value="block" style="shape=partialRectangle;html=1;whiteSpace=wrap;connectable=0;overflow=hidden;fillColor=none;top=0;left=0;bottom=0;right=0;pointerEvents=1;strokeColor=#028090;fontColor=#E4FDE1;" vertex="1" parent="3t-wEoBImFfyJGvglYrX-19">
          <mxGeometry width="100" height="40" as="geometry">
            <mxRectangle width="100" height="40" as="alternateBounds" />
          </mxGeometry>
        </mxCell>
        <mxCell id="3t-wEoBImFfyJGvglYrX-21" value="" style="shape=partialRectangle;collapsible=0;dropTarget=0;pointerEvents=0;fillColor=none;top=0;left=0;bottom=0;right=0;points=[[0,0.5],[1,0.5]];portConstraint=eastwest;strokeColor=#028090;fontColor=#E4FDE1;" vertex="1" parent="3t-wEoBImFfyJGvglYrX-12">
          <mxGeometry y="160" width="100" height="40" as="geometry" />
        </mxCell>
        <mxCell id="3t-wEoBImFfyJGvglYrX-22" value="block" style="shape=partialRectangle;html=1;whiteSpace=wrap;connectable=0;overflow=hidden;fillColor=none;top=0;left=0;bottom=0;right=0;pointerEvents=1;strokeColor=#028090;fontColor=#E4FDE1;" vertex="1" parent="3t-wEoBImFfyJGvglYrX-21">
          <mxGeometry width="100" height="40" as="geometry">
            <mxRectangle width="100" height="40" as="alternateBounds" />
          </mxGeometry>
        </mxCell>
        <mxCell id="3t-wEoBImFfyJGvglYrX-23" value="heap" style="rounded=0;whiteSpace=wrap;html=1;fillColor=#F45B69;strokeColor=#028090;fontColor=#E4FDE1;" vertex="1" parent="1">
          <mxGeometry x="390" y="240" width="170" height="40" as="geometry" />
        </mxCell>
        <mxCell id="3t-wEoBImFfyJGvglYrX-25" value="heap" style="rounded=0;whiteSpace=wrap;html=1;fillColor=#F45B69;strokeColor=#028090;fontColor=#E4FDE1;" vertex="1" parent="1">
          <mxGeometry x="390" y="280" width="170" height="40" as="geometry" />
        </mxCell>
        <mxCell id="3t-wEoBImFfyJGvglYrX-26" value="used&amp;nbsp; &amp;nbsp; &amp;nbsp; &amp;nbsp; &amp;nbsp; &amp;nbsp; &amp;nbsp; &amp;nbsp; &amp;nbsp; &amp;nbsp; &amp;nbsp; &amp;nbsp; &amp;nbsp; &amp;nbsp; &amp;nbsp; &amp;nbsp; &amp;nbsp;" style="rounded=0;whiteSpace=wrap;html=1;fillColor=#F45B69;strokeColor=#028090;fontColor=#E4FDE1;" vertex="1" parent="1">
          <mxGeometry x="390" y="320" width="170" height="40" as="geometry" />
        </mxCell>
        <mxCell id="3t-wEoBImFfyJGvglYrX-27" value="not use" style="rounded=0;whiteSpace=wrap;html=1;fillColor=#F45B69;strokeColor=#028090;fontColor=#E4FDE1;" vertex="1" parent="1">
          <mxGeometry x="460" y="320" width="100" height="40" as="geometry" />
        </mxCell>
        <mxCell id="3t-wEoBImFfyJGvglYrX-28" style="edgeStyle=orthogonalEdgeStyle;rounded=0;orthogonalLoop=1;jettySize=auto;html=1;entryX=0;entryY=0.5;entryDx=0;entryDy=0;labelBackgroundColor=#114B5F;strokeColor=#028090;fontColor=#E4FDE1;" edge="1" parent="1" source="3t-wEoBImFfyJGvglYrX-13" target="3t-wEoBImFfyJGvglYrX-23">
          <mxGeometry relative="1" as="geometry" />
        </mxCell>
        <mxCell id="3t-wEoBImFfyJGvglYrX-29" style="edgeStyle=orthogonalEdgeStyle;rounded=0;orthogonalLoop=1;jettySize=auto;html=1;entryX=0;entryY=0.5;entryDx=0;entryDy=0;labelBackgroundColor=#114B5F;strokeColor=#028090;fontColor=#E4FDE1;" edge="1" parent="1" source="3t-wEoBImFfyJGvglYrX-15" target="3t-wEoBImFfyJGvglYrX-25">
          <mxGeometry relative="1" as="geometry" />
        </mxCell>
        <mxCell id="3t-wEoBImFfyJGvglYrX-30" style="edgeStyle=orthogonalEdgeStyle;rounded=0;orthogonalLoop=1;jettySize=auto;html=1;entryX=0;entryY=0.5;entryDx=0;entryDy=0;labelBackgroundColor=#114B5F;strokeColor=#028090;fontColor=#E4FDE1;" edge="1" parent="1" source="3t-wEoBImFfyJGvglYrX-17" target="3t-wEoBImFfyJGvglYrX-26">
          <mxGeometry relative="1" as="geometry" />
        </mxCell>
        <mxCell id="3t-wEoBImFfyJGvglYrX-32" style="edgeStyle=orthogonalEdgeStyle;rounded=0;orthogonalLoop=1;jettySize=auto;html=1;entryX=0;entryY=1;entryDx=0;entryDy=0;labelBackgroundColor=#114B5F;strokeColor=#028090;fontColor=#E4FDE1;" edge="1" parent="1" source="3t-wEoBImFfyJGvglYrX-31" target="3t-wEoBImFfyJGvglYrX-27">
          <mxGeometry relative="1" as="geometry" />
        </mxCell>
        <mxCell id="3t-wEoBImFfyJGvglYrX-31" value="&lt;div style=&quot;color: rgb(36 , 41 , 46) ; background-color: rgb(255 , 255 , 255) ; font-family: &amp;#34;consolas&amp;#34; , &amp;#34;courier new&amp;#34; , monospace ; font-size: 14px ; line-height: 19px&quot;&gt;alloc_ptr_&lt;/div&gt;" style="text;html=1;align=center;verticalAlign=middle;resizable=0;points=[];autosize=1;fontColor=#E4FDE1;" vertex="1" parent="1">
          <mxGeometry x="415" y="440" width="90" height="20" as="geometry" />
        </mxCell>
        <mxCell id="3t-wEoBImFfyJGvglYrX-37" style="edgeStyle=orthogonalEdgeStyle;rounded=0;orthogonalLoop=1;jettySize=auto;html=1;entryX=0.844;entryY=1.035;entryDx=0;entryDy=0;entryPerimeter=0;labelBackgroundColor=#114B5F;strokeColor=#028090;fontColor=#E4FDE1;" edge="1" parent="1" source="3t-wEoBImFfyJGvglYrX-33" target="3t-wEoBImFfyJGvglYrX-27">
          <mxGeometry relative="1" as="geometry" />
        </mxCell>
        <mxCell id="3t-wEoBImFfyJGvglYrX-33" value="&lt;div style=&quot;color: rgb(36 , 41 , 46) ; background-color: rgb(255 , 255 , 255) ; font-family: &amp;#34;consolas&amp;#34; , &amp;#34;courier new&amp;#34; , monospace ; font-size: 14px ; line-height: 19px&quot;&gt;alloc_bytes_remaining_&lt;/div&gt;" style="text;html=1;align=center;verticalAlign=middle;resizable=0;points=[];autosize=1;fontColor=#E4FDE1;" vertex="1" parent="1">
          <mxGeometry x="450" y="510" width="190" height="20" as="geometry" />
        </mxCell>
        <mxCell id="3t-wEoBImFfyJGvglYrX-39" style="edgeStyle=orthogonalEdgeStyle;rounded=0;orthogonalLoop=1;jettySize=auto;html=1;labelBackgroundColor=#114B5F;strokeColor=#028090;fontColor=#E4FDE1;" edge="1" parent="1">
          <mxGeometry relative="1" as="geometry">
            <mxPoint x="180" y="238" as="targetPoint" />
            <mxPoint x="180" y="178" as="sourcePoint" />
          </mxGeometry>
        </mxCell>
        <mxCell id="3t-wEoBImFfyJGvglYrX-38" value="&lt;div style=&quot;color: rgb(36 , 41 , 46) ; background-color: rgb(255 , 255 , 255) ; font-family: &amp;#34;consolas&amp;#34; , &amp;#34;courier new&amp;#34; , monospace ; font-size: 14px ; line-height: 19px&quot;&gt;&lt;span style=&quot;color: #6f42c1&quot;&gt;std&lt;/span&gt;::&lt;span style=&quot;color: #6f42c1&quot;&gt;vector&lt;/span&gt;&lt;span style=&quot;color: #d73a49&quot;&gt;&amp;lt;char*&amp;gt;&lt;/span&gt;&amp;nbsp;blocks_&lt;/div&gt;" style="text;html=1;align=center;verticalAlign=middle;resizable=0;points=[];autosize=1;fontColor=#E4FDE1;" vertex="1" parent="1">
          <mxGeometry x="70" y="155" width="220" height="20" as="geometry" />
        </mxCell>
        <mxCell id="3t-wEoBImFfyJGvglYrX-40" value="new" style="text;html=1;align=center;verticalAlign=middle;resizable=0;points=[];autosize=1;fontColor=#E4FDE1;" vertex="1" parent="1">
          <mxGeometry x="280" y="240" width="40" height="20" as="geometry" />
        </mxCell>
        <mxCell id="3t-wEoBImFfyJGvglYrX-41" value="new" style="text;html=1;align=center;verticalAlign=middle;resizable=0;points=[];autosize=1;fontColor=#E4FDE1;" vertex="1" parent="1">
          <mxGeometry x="280" y="280" width="40" height="20" as="geometry" />
        </mxCell>
        <mxCell id="3t-wEoBImFfyJGvglYrX-42" value="new" style="text;html=1;align=center;verticalAlign=middle;resizable=0;points=[];autosize=1;fontColor=#E4FDE1;" vertex="1" parent="1">
          <mxGeometry x="280" y="320" width="40" height="20" as="geometry" />
        </mxCell>
      </root>
    </mxGraphModel>
  </diagram>
</mxfile>
